{"accessors" : [{"bufferView" : 0, "byteOffset" : 0, "componentType" : 5123, "count" : 30300, "type" : "SCALAR", "max" : [11943], "min" : [0]}, {"bufferView" : 1, "byteOffset" : 0, "componentType" : 5126, "count" : 11944, "type" : "VEC3", "max" : [0.30593401193618774, 0.6000000238418579, 0.3151099979877472], "min" : [-0.30593401193618774, -0.5996590256690979, -0.3151099979877472], "name" : "POSITION"}, {"bufferView" : 1, "byteOffset" : 12, "componentType" : 5126, "count" : 11944, "type" : "VEC2", "max" : [0.9970700144767761, 1], "min" : [0, 0], "name" : "TEXCOORD_0"}, {"bufferView" : 1, "byteOffset" : 20, "componentType" : 5126, "count" : 11944, "type" : "VEC3", "max" : [0.9993135333061218, 0.9946345090866089, 1.000002145767212], "min" : [-0.9999778270721436, -0.9999966025352478, -0.9992036819458008], "name" : "NORMAL"}], "asset" : {"generator" : "Aspose.3D 24.2.0", "version" : "2.0"}, "buffers" : [{"uri" : "buffer.bin", "byteLength" : 442816}], "bufferViews" : [{"buffer" : 0, "byteOffset" : 0, "byteLength" : 60600, "target" : 34963}, {"buffer" : 0, "byteOffset" : 60604, "byteLength" : 382208, "byteStride" : 32, "target" : 34962}], "meshes" : [{"primitives" : [{"attributes" : {"POSITION" : 1, "TEXCOORD_0" : 2, "NORMAL" : 3}, "indices" : 0, "mode" : 4}], "name" : ""}], "nodes" : [{"mesh" : 0, "name" : "Mesh_0"}], "scene" : 0, "scenes" : [{"nodes" : [0]}]}