<?xml version="1.0" encoding="UTF-8"?>
<svg id="Layer_1" data-name="Layer 1" xmlns="http://www.w3.org/2000/svg" viewBox="0 0 50 36.1">
  <defs>
    <style>
      .cls-1, .cls-2 {
        fill: #fff;
      }

      .cls-2 {
        fill-rule: evenodd;
      }
    </style>
  </defs>
  <g id="Group_7928" data-name="Group 7928">
    <path id="Path_36924" data-name="Path 36924" class="cls-1" d="M46.04,16.42c-7.55-7.24-14.88-10.81-21.92-10.69-6.67,.14-13.39,3.71-19.99,10.61L0,12.38C7.68,4.34,15.76,.18,24,0c8.53-.2,17.31,3.95,26,12.28l-3.96,4.13Z"/>
    <path id="Path_36925" data-name="Path 36925" class="cls-1" d="M38.96,23.2c-5.12-4.92-10.08-7.35-14.75-7.26-4.44,.1-8.95,2.51-13.41,7.17l-4.14-3.96c5.55-5.8,11.41-8.8,17.42-8.93,6.32-.12,12.58,2.84,18.83,8.85l-3.96,4.13Z"/>
    <path id="Path_36926" data-name="Path 36926" class="cls-1" d="M31.3,29.5c-2.5-2.4-4.83-3.64-7.02-3.55-2.03,.04-4.15,1.21-6.31,3.46l-4.13-3.96c3.24-3.39,6.71-5.15,10.32-5.22,3.73-.12,7.46,1.65,11.1,5.14l-3.96,4.13Z"/>
    <path id="Path_36927" data-name="Path 36927" class="cls-2" d="M24.47,35.81c1.73,.08,3.19-1.25,3.28-2.98-.09-1.72-1.56-3.05-3.28-2.98-1.73-.08-3.19,1.25-3.28,2.98,.09,1.72,1.56,3.05,3.28,2.98"/>
    <path id="Path_36928" data-name="Path 36928" class="cls-1" d="M24.47,36.1c-1.88,.08-3.48-1.38-3.57-3.26,.09-1.88,1.69-3.34,3.57-3.26,1.88-.08,3.48,1.38,3.57,3.26-.09,1.88-1.68,3.34-3.57,3.26m0-5.95c-1.57-.08-2.91,1.12-3,2.69,.09,1.57,1.43,2.77,3,2.69,1.57,.08,2.91-1.12,3-2.69-.09-1.57-1.43-2.77-3-2.69"/>
  </g>
</svg>