<?xml version="1.0" encoding="UTF-8"?>
<svg id="Layer_1" data-name="Layer 1" xmlns="http://www.w3.org/2000/svg" viewBox="0 0 89.07 45.92">
  <defs>
    <style>
      .cls-1 {
        fill: #fff;
      }
    </style>
  </defs>
  <path class="cls-1" d="M.84,2.76H29.6L.39,43.55c-.26,.37-.39,.76-.39,1.17v1.2H33.75v-2.76H4.41L33.56,2.47c.3-.43,.45-.88,.45-1.33V0H.84V2.76Z"/>
  <rect class="cls-1" x="54.16" y="22.07" width="20.26" height="2.76"/>
  <rect class="cls-1" x="54.16" width="23.51" height="2.76"/>
  <polygon class="cls-1" points="42.75 7.44 42.76 45.92 45.42 45.92 45.41 7.44 42.75 7.44"/>
  <polygon class="cls-1" points="45.41 0 42.75 0 42.75 3.45 45.41 3.44 45.41 0"/>
  <polygon class="cls-1" points="89.06 7.44 86.4 7.44 86.41 45.92 89.07 45.92 89.06 7.44"/>
  <polygon class="cls-1" points="89.06 0 86.4 0 86.4 3.45 89.06 3.44 89.06 0"/>
</svg>