<?xml version="1.0" encoding="UTF-8"?>
<svg id="Layer_1" data-name="Layer 1" xmlns="http://www.w3.org/2000/svg" viewBox="0 0 43.44 50">
  <defs>
    <style>
      .cls-1 {
        fill: #fff;
      }
    </style>
  </defs>
  <g id="Group_7926" data-name="Group 7926">
    <path id="Path_36948" data-name="Path 36948" class="cls-1" d="M21.72,26.74c-7.39,0-13.37-5.99-13.37-13.37S14.34,0,21.72,0s13.37,5.99,13.37,13.37h0c0,7.38-5.99,13.36-13.37,13.37m0-23.26c-5.46,0-9.88,4.43-9.88,9.88s4.43,9.88,9.88,9.88,9.88-4.43,9.88-9.88c0-5.46-4.43-9.88-9.88-9.88"/>
    <path id="Path_36949" data-name="Path 36949" class="cls-1" d="M41.7,50c-.96,0-1.74-.78-1.74-1.74,0-8.01-8.18-14.53-18.23-14.53S3.49,40.24,3.49,48.25c0,.96-.78,1.74-1.74,1.74-.96,0-1.74-.78-1.74-1.74,0-9.94,9.74-18.02,21.72-18.02s21.72,8.09,21.72,18.02c0,.96-.78,1.74-1.74,1.74"/>
  </g>
</svg>