<?xml version="1.0" encoding="UTF-8"?>
<svg id="Layer_1" data-name="Layer 1" xmlns="http://www.w3.org/2000/svg" viewBox="0 0 42.83 50">
  <defs>
    <style>
      .cls-1 {
        fill: #009105;
      }
    </style>
  </defs>
  <g id="Group_7918" data-name="Group 7918">
    <path id="Path_36932" data-name="Path 36932" class="cls-1" d="M41.79,26.05c-1.39-1.39-3.65-1.4-5.04,0,0,0,0,0,0,0l-11.76,11.76V3.57c0-1.97-1.6-3.57-3.57-3.57s-3.57,1.6-3.57,3.57V37.81L6.08,26.05c-1.41-1.38-3.67-1.37-5.05,.04-1.37,1.39-1.37,3.62,0,5.01l17.85,17.85c1.4,1.39,3.66,1.39,5.06,0l17.85-17.85c1.39-1.39,1.4-3.65,0-5.04,0,0,0,0,0,0"/>
  </g>
</svg>