<?xml version="1.0" encoding="UTF-8"?>
<svg id="Layer_1" data-name="Layer 1" xmlns="http://www.w3.org/2000/svg" viewBox="0 0 130 130">
  <defs>
    <style>
      .cls-1 {
        fill: #009105;
      }
    </style>
  </defs>
  <path class="cls-1" d="M65,0C29.16,0,0,29.16,0,65s29.16,65,65,65,65-29.16,65-65S100.84,0,65,0Zm0,127c-34.19,0-62-27.81-62-62S30.81,3,65,3s62,27.81,62,62-27.81,62-62,62Z"/>
  <path class="cls-1" d="M85.37,66.05h0c-1.39-1.4-3.65-1.4-5.04,0h0s-11.76,11.77-11.76,11.77V43.57c0-1.97-1.6-3.57-3.57-3.57s-3.57,1.6-3.57,3.57v34.24l-11.76-11.76c-1.41-1.38-3.67-1.37-5.05,.04-1.37,1.39-1.37,3.62,0,5.01l17.85,17.85c1.4,1.39,3.66,1.39,5.06,0l17.85-17.85c1.39-1.39,1.4-3.65,0-5.04,0,0,0,0,0,0Z"/>
</svg>