<?xml version="1.0" encoding="UTF-8"?>
<svg id="Layer_1" data-name="Layer 1" xmlns="http://www.w3.org/2000/svg" viewBox="0 0 169.39 75.45">
  <defs>
    <style>
      .cls-1 {
        fill: #fff;
      }

      .cls-2 {
        fill: none;
      }
    </style>
  </defs>
  <polygon class="cls-2" points="72.49 66.98 77.36 66.98 77.36 66.49 73.08 66.49 73.08 63.11 76.64 63.11 76.64 62.63 73.08 62.63 73.08 59.35 77.36 59.35 77.36 58.86 72.49 58.86 72.49 66.98"/>
  <polygon class="cls-2" points="89.65 59.36 92.52 59.36 92.52 66.98 93.1 66.98 93.1 59.36 95.95 59.36 95.95 58.86 89.65 58.86 89.65 59.36"/>
  <polygon class="cls-2" points="81.57 66.98 86.44 66.98 86.44 66.49 82.16 66.49 82.16 63.11 85.72 63.11 85.72 62.63 82.16 62.63 82.16 59.35 86.44 59.35 86.44 58.86 81.57 58.86 81.57 66.98"/>
  <path class="cls-2" d="M67.25,58.88s-.06,.04-.09,.09l-3.19,5.64c-.03,.05-.06,.11-.08,.17-.02,.06-.05,.12-.07,.18-.04-.12-.09-.24-.15-.34l-3.28-5.65s-.06-.08-.09-.09c-.03-.01-.08-.02-.13-.02h-.4v8.12h.51v-6.92c0-.1,0-.21-.02-.32l3.28,5.68c.06,.1,.13,.15,.23,.15h.09c.1,0,.18-.05,.23-.15l3.2-5.68c-.01,.11-.02,.22-.02,.32v6.92h.52v-8.12h-.41c-.05,0-.1,0-.13,.02Z"/>
  <path class="cls-2" d="M49.61,45.71l10.21-18.14c-.04,.35-.06,.69-.06,1.01v22.12h1.65V24.75h-1.3c-.17,0-.31,.02-.4,.06-.1,.04-.2,.13-.29,.29l-10.2,18.03c-.1,.17-.19,.35-.27,.54-.08,.19-.16,.38-.23,.58,0-.01-.01-.03-.02-.04v1.98h.16c.32,0,.56-.16,.73-.48Z"/>
  <path class="cls-2" d="M92.94,38.78c-1.59-2.76-3.39-5.96-4.99-8.74-1.32-2.29-2.55-5.24-5.83-5.28-3.41-.05-4.54,2.96-5.78,5.14-3.93,6.9-11.95,20.79-11.95,20.79h3.7s7.66-13.55,11.46-20.4c.49-.88,1.45-2.02,2.57-2.02,1.7,0,2.55,2.02,3.31,3.41,2.04,3.72,4.01,7.27,5.93,10.86,.6,1.13,1.83,2.62,.99,4.15-.55,1-1.65,.94-3.21,.94,0,.03-15.11,0-15.11,0v3.06h13.73s3.23,.1,4.54-.15c2.17-.41,3.35-2.09,3.65-4.25v-.54c-.07-.95-.24-1.82-.54-2.57-.6-1.5-1.61-2.91-2.47-4.4Z"/>
  <path class="cls-2" d="M137.88,68.85c.35,.61,.75,1.32,1.11,1.94,.29,.51,.57,1.16,1.29,1.17,.76,.01,1.01-.66,1.28-1.14,.87-1.53,2.65-4.61,2.65-4.61h-.82s-1.7,3.01-2.54,4.53c-.11,.19-.32,.45-.57,.45-.38,0-.57-.45-.73-.76-.45-.82-.89-1.61-1.32-2.41-.13-.25-.41-.58-.22-.92,.12-.22,.37-.21,.71-.21,0,0,3.35,0,3.35,0v-.68h-3.05s-.72-.02-1.01,.03c-.48,.09-.74,.46-.81,.94v.12c.02,.21,.05,.4,.12,.57,.13,.33,.36,.64,.55,.98Z"/>
  <path class="cls-2" d="M131.44,71.96h.82s1.7-3.01,2.54-4.53c.11-.19,.32-.45,.57-.45,.38,0,.57,.45,.73,.76,.45,.82,.89,1.61,1.32,2.41,.13,.25,.41,.58,.22,.92-.12,.22-.37,.21-.71,.21,0,0-3.35,0-3.35,0v.68h3.05s.72,.02,1.01-.03c.48-.09,.74-.46,.81-.94v-.12c-.02-.21-.05-.4-.12-.57-.13-.33-.36-.64-.55-.98-.35-.61-.75-1.32-1.11-1.94-.29-.51-.57-1.16-1.29-1.17-.76-.01-1.01,.66-1.28,1.14-.87,1.53-2.65,4.61-2.65,4.61Z"/>
  <path class="cls-2" d="M127.9,69.32c-.35-.61-.75-1.32-1.11-1.94-.29-.51-.57-1.16-1.29-1.17-.76-.01-1.01,.66-1.28,1.14-.87,1.53-2.65,4.61-2.65,4.61h.82s1.7-3.01,2.54-4.53c.11-.19,.32-.45,.57-.45,.38,0,.57,.45,.73,.76,.45,.82,.89,1.61,1.32,2.41,.13,.25,.41,.58,.22,.92-.12,.22-.37,.21-.71,.21,0,0-3.35,0-3.35,0v.68h3.05s.72,.02,1.01-.03c.48-.09,.74-.46,.81-.94v-.12c-.02-.21-.05-.4-.12-.57-.13-.33-.36-.64-.55-.98Z"/>
  <path class="cls-2" d="M134.34,66.21h-.82s-1.7,3.01-2.54,4.53c-.11,.19-.32,.45-.57,.45-.38,0-.57-.45-.73-.76-.45-.82-.89-1.61-1.32-2.41-.13-.25-.41-.58-.22-.92,.12-.22,.37-.21,.71-.21,0,0,3.35,0,3.35,0v-.68h-3.05s-.72-.02-1.01,.03c-.48,.09-.74,.46-.81,.94v.12c.02,.21,.05,.4,.12,.57,.13,.33,.36,.64,.55,.98,.35,.61,.75,1.32,1.11,1.94,.29,.51,.57,1.16,1.29,1.17,.76,.01,1.01-.66,1.28-1.14,.87-1.53,2.65-4.61,2.65-4.61Z"/>
  <path class="cls-1" d="M164.95,3.46l-17.18,12.55-11.64,8.51v26.53l12.53,9.14,16.29,11.88c2.07,1.55,4.44,2.07,4.44-2.2V5.66c0-3.75-1.94-4.27-4.44-2.2Z"/>
  <path class="cls-1" d="M.48,26.31H16.72L.22,49.36c-.15,.21-.22,.43-.22,.66v.68H19.07v-1.56H2.49L18.96,26.15c.17-.24,.26-.49,.26-.75v-.64H.48v1.56Z"/>
  <rect class="cls-1" x="25.56" y="24.75" width="1.89" height="25.95"/>
  <path class="cls-1" d="M48.25,43.15l-10.47-18.04c-.1-.16-.2-.26-.3-.29-.1-.04-.24-.06-.41-.06h-1.28v25.95h1.63V28.59c0-.33-.02-.67-.05-1.03l10.49,18.15c.18,.32,.43,.48,.73,.48h.13v-1.98c-.13-.37-.28-.73-.46-1.06Z"/>
  <path class="cls-1" d="M134.38,23.68l12.38-9.05C144.11,6.11,136.13-.04,126.78,0H52.52C50.41,0,48.71,1.7,48.71,3.76V44.21s.01,.03,.02,.04c.07-.2,.15-.39,.23-.58,.08-.19,.17-.37,.27-.54l10.2-18.03c.1-.16,.2-.26,.29-.29,.1-.04,.23-.06,.4-.06h1.3v25.95h-1.65V28.59c0-.32,.02-.65,.06-1.01l-10.21,18.14c-.17,.32-.42,.48-.73,.48h-.16v8.52c.05,11.52,9.45,20.79,20.93,20.75h74.26c2.11,0,3.81-1.7,3.81-3.76v-10.07l-13.33-9.72V23.68Zm-66.59,43.31h-.52v-6.92c0-.1,0-.2,.02-.32l-3.2,5.68c-.05,.1-.13,.15-.23,.15h-.09c-.1,0-.17-.05-.23-.15l-3.28-5.68c.01,.11,.02,.22,.02,.32v6.92h-.51v-8.12h.4c.05,0,.1,0,.13,.02,.03,.01,.06,.04,.09,.09l3.28,5.65c.06,.11,.11,.22,.15,.34,.02-.06,.05-.12,.07-.18,.03-.06,.05-.12,.08-.17l3.19-5.64s.06-.08,.09-.09c.03-.01,.07-.02,.13-.02h.41v8.12Zm9.57-7.63h-4.28v3.28h3.56v.48h-3.56v3.39h4.28v.49h-4.87v-8.12h4.87v.49Zm9.08,0h-4.27v3.28h3.56v.48h-3.56v3.39h4.27v.49h-4.87v-8.12h4.87v.49Zm9.51,.01h-2.85v7.62h-.59v-7.62h-2.87v-.5h6.31v.5Zm0-13.07c-.31,2.16-1.49,3.84-3.65,4.25-1.31,.25-4.54,.15-4.54,.15h-13.73v-3.06s15.11,.03,15.11,0c1.56,0,2.66,.06,3.21-.94,.84-1.53-.39-3.02-.99-4.15-1.92-3.59-3.88-7.15-5.93-10.86-.76-1.39-1.61-3.41-3.31-3.41-1.12,0-2.08,1.15-2.57,2.02-3.8,6.85-11.46,20.4-11.46,20.4h-3.7s8.02-13.89,11.95-20.79c1.24-2.17,2.37-5.18,5.78-5.14,3.28,.05,4.51,2.99,5.83,5.28,1.6,2.78,3.4,5.98,4.99,8.74,.86,1.49,1.87,2.9,2.47,4.4,.3,.75,.47,1.61,.54,2.57v.54Zm32.62,24.7c-.07,.48-.33,.85-.81,.94-.29,.05-1.01,.03-1.01,.03h-3.05v-.68s3.35,0,3.35,0c.35,0,.59,.01,.71-.21,.19-.34-.09-.67-.22-.92-.43-.8-.86-1.59-1.32-2.41-.17-.31-.36-.76-.73-.76-.25,0-.46,.26-.57,.45-.84,1.52-2.54,4.53-2.54,4.53h-.82s1.78-3.08,2.65-4.61c.27-.48,.53-1.15,1.28-1.14,.73,.01,1,.66,1.29,1.17,.36,.62,.75,1.33,1.11,1.94,.19,.33,.41,.64,.55,.98,.07,.17,.1,.36,.12,.57v.12Zm1.84,.98c-.73-.01-1-.66-1.29-1.17-.36-.62-.75-1.33-1.11-1.94-.19-.33-.41-.64-.55-.98-.07-.17-.1-.36-.12-.57v-.12c.07-.48,.33-.85,.81-.94,.29-.05,1.01-.03,1.01-.03h3.05v.68s-3.35,0-3.35,0c-.35,0-.59-.01-.71,.21-.19,.34,.09,.67,.22,.92,.43,.8,.86,1.59,1.32,2.41,.17,.31,.36,.76,.73,.76,.25,0,.46-.26,.57-.45,.84-1.52,2.54-4.53,2.54-4.53h.82s-1.78,3.08-2.65,4.61c-.27,.48-.53,1.15-1.28,1.14Zm6.81-4.78c.07-.48,.33-.85,.81-.94,.29-.05,1.01-.03,1.01-.03h3.05v.68s-3.35,0-3.35,0c-.35,0-.59-.01-.71,.21-.19,.34,.09,.67,.22,.92,.43,.8,.86,1.59,1.32,2.41,.17,.31,.36,.76,.73,.76,.25,0,.46-.26,.57-.45,.84-1.52,2.54-4.53,2.54-4.53h.82s-1.78,3.08-2.65,4.61c-.27,.48-.53,1.15-1.28,1.14-.73-.01-1-.66-1.29-1.17-.36-.62-.75-1.33-1.11-1.94-.19-.33-.41-.64-.55-.98-.07-.17-.1-.36-.12-.57v-.12Zm-1.84-.98c.73,.01,1,.66,1.29,1.17,.36,.62,.75,1.33,1.11,1.94,.19,.33,.41,.64,.55,.98,.07,.17,.1,.36,.12,.57v.12c-.07,.48-.33,.85-.81,.94-.29,.05-1.01,.03-1.01,.03h-3.05v-.68s3.35,0,3.35,0c.35,0,.59,.01,.71-.21,.19-.34-.09-.67-.22-.92-.43-.8-.86-1.59-1.32-2.41-.17-.31-.36-.76-.73-.76-.25,0-.46,.26-.57,.45-.84,1.52-2.54,4.53-2.54,4.53h-.82s1.78-3.08,2.65-4.61c.27-.48,.53-1.15,1.28-1.14Z"/>
</svg>